<svg width="263" height="197" viewBox="0 0 263 197" fill="none" xmlns="http://www.w3.org/2000/svg">
<path d="M31.267 139.638C48.6672 181.378 72.7015 159.099 103.258 145.482C120.958 137.596 133.711 137.126 151.782 143.805C172.346 151.407 195.956 157.812 214.324 140.002C255.703 99.887 216.013 16.0488 166.623 25.9466C149.896 29.2982 137.12 45.0999 120.771 48.2399C104.876 51.2939 91.6519 34.3965 78.2342 27.1968C54.5142 14.4681 36.2837 32.5903 27.6229 58.8407C18.5451 86.3577 20.9521 113.409 31.267 139.638Z" fill="white"/>
<path d="M262.072 26.3329V77.1655C262.072 80.0624 259.701 82.431 256.802 82.431H201.208C198.31 82.431 195.937 80.0624 195.937 77.1655V26.3329C195.937 23.4373 198.31 21.0674 201.208 21.0674H256.802C259.701 21.0674 262.072 23.4373 262.072 26.3329Z" fill="#C778DD"/>
<path d="M262.072 26.3329V32.1735H195.937V26.3329C195.937 23.4373 198.31 21.0674 201.208 21.0674H256.802C259.701 21.0674 262.072 23.4373 262.072 26.3329Z" fill="#692E75"/>
<path d="M254.168 26.5926C254.168 27.611 254.993 28.4369 256.012 28.4369C257.03 28.4369 257.857 27.611 257.857 26.5926C257.857 25.5754 257.03 24.7496 256.012 24.7496C254.993 24.7496 254.168 25.5754 254.168 26.5926Z" fill="#E5E7E8"/>
<path d="M247.251 26.5926C247.251 27.611 248.077 28.4369 249.096 28.4369C250.115 28.4369 250.94 27.611 250.94 26.5926C250.94 25.5754 250.115 24.7496 249.096 24.7496C248.077 24.7496 247.251 25.5754 247.251 26.5926Z" fill="#E5E7E8"/>
<path d="M224.57 26.5939C224.57 27.6072 223.429 28.4369 222.035 28.4369H202.601C201.207 28.4369 200.066 27.6072 200.066 26.5939C200.066 25.5793 201.207 24.7496 202.601 24.7496H222.035C223.429 24.7496 224.57 25.5793 224.57 26.5939Z" fill="#CFD2D3"/>
<path d="M240.292 40.8869H203.58C202.852 40.8869 202.262 40.2966 202.262 39.5696C202.262 38.8425 202.852 38.2535 203.58 38.2535H240.292C241.019 38.2535 241.609 38.8425 241.609 39.5696C241.609 40.2966 241.019 40.8869 240.292 40.8869Z" fill="#E5E7E8"/>
<path d="M232.739 46.9999H210.606C209.878 46.9999 209.289 46.4096 209.289 45.6825C209.289 44.9555 209.878 44.3665 210.606 44.3665H232.739C233.466 44.3665 234.056 44.9555 234.056 45.6825C234.056 46.4096 233.466 46.9999 232.739 46.9999Z" fill="#E5E7E8"/>
<path d="M245.912 53.1128H210.606C209.878 53.1128 209.289 52.5225 209.289 51.7955C209.289 51.0684 209.878 50.4794 210.606 50.4794H245.912C246.639 50.4794 247.229 51.0684 247.229 51.7955C247.229 52.5225 246.639 53.1128 245.912 53.1128Z" fill="#E5E7E8"/>
<path d="M240.292 59.2257H220.266C219.539 59.2257 218.949 58.6367 218.949 57.9084C218.949 57.1813 219.539 56.5923 220.266 56.5923H240.292C241.019 56.5923 241.609 57.1813 241.609 57.9084C241.609 58.6367 241.019 59.2257 240.292 59.2257Z" fill="#E5E7E8"/>
<path d="M252.06 65.3387H210.606C209.878 65.3387 209.289 64.7497 209.289 64.0213C209.289 63.2943 209.878 62.7052 210.606 62.7052H252.06C252.788 62.7052 253.377 63.2943 253.377 64.0213C253.377 64.7497 252.788 65.3387 252.06 65.3387Z" fill="#E5E7E8"/>
<path d="M221.672 71.4516H203.58C202.852 71.4516 202.262 70.8626 202.262 70.1356C202.262 69.4085 202.852 68.8182 203.58 68.8182H221.672C222.398 68.8182 222.989 69.4085 222.989 70.1356C222.989 70.8626 222.398 71.4516 221.672 71.4516Z" fill="#E5E7E8"/>
<path d="M240.292 77.5645H210.606C209.878 77.5645 209.289 76.9755 209.289 76.2485C209.289 75.5201 209.878 74.9311 210.606 74.9311H240.292C241.019 74.9311 241.609 75.5201 241.609 76.2485C241.609 76.9755 241.019 77.5645 240.292 77.5645" fill="#E5E7E8"/>
<path d="M32.5306 81.172C32.0553 83.414 30.8765 85.3963 29.2351 86.8783C28.1134 87.898 26.7762 88.6833 25.2995 89.1583C24.2602 89.494 23.1511 89.6713 21.9977 89.6713C20.8443 89.6713 19.7352 89.494 18.6959 89.1583C17.2256 88.6833 15.8884 87.9043 14.7666 86.8847C13.1252 85.4027 11.9464 83.414 11.4584 81.172C11.3063 80.4437 11.224 79.6837 11.224 78.9047C11.224 78.1257 11.3063 77.3657 11.4648 76.631C11.9464 74.389 13.1252 72.4067 14.7666 70.9247C15.8884 69.905 17.2256 69.126 18.7022 68.651C19.7416 68.3153 20.8506 68.138 21.9977 68.138C23.1511 68.138 24.2602 68.3153 25.2995 68.651C26.7762 69.126 28.1134 69.9113 29.2351 70.931C30.8702 72.413 32.049 74.3953 32.5306 76.631C32.6891 77.3657 32.7715 78.1257 32.7715 78.9047C32.7715 79.6837 32.6891 80.4437 32.5306 81.172V81.172ZM40.199 78.9047C40.199 78.2017 40.161 77.505 40.0786 76.821L43.9952 74.56C43.0192 69.6073 40.4081 65.2373 36.7514 62.0453L32.8412 64.3C31.7321 63.4703 30.5216 62.7673 29.2351 62.2163V57.7007C26.9663 56.9217 24.5264 56.5037 21.9977 56.5037C19.469 56.5037 17.0354 56.9217 14.7666 57.6943V62.2163C13.4801 62.7673 12.2696 63.4703 11.1606 64.3L7.24401 62.039C3.58677 65.2373 0.975975 69.6073 0 74.56L3.92291 76.8273C3.84052 77.5113 3.8025 78.2017 3.8025 78.9047C3.8025 79.6077 3.84052 80.3043 3.92291 80.982L0.00620134 83.243C0.975966 88.202 3.58677 92.572 7.25035 95.764L11.1606 93.5093C12.2696 94.3327 13.4801 95.0357 14.7666 95.593V100.109C17.0354 100.881 19.469 101.299 21.9977 101.299C24.5264 101.299 26.9663 100.881 29.2351 100.102V95.593C30.5216 95.0357 31.7321 94.3327 32.8412 93.5093L36.7514 95.764C40.4081 92.5657 43.0192 88.202 43.9888 83.243L40.0786 80.982C40.161 80.3043 40.199 79.6077 40.199 78.9047" fill="#C778DD"/>
<path d="M81.1634 24.9117C81.1634 27.6984 78.8806 29.9784 76.0934 29.9784H48.2096C45.4211 29.9784 43.1396 27.6984 43.1396 24.9117V14.4934C43.1396 11.7067 45.4211 9.42673 48.2096 9.42673H76.0934C78.8806 9.42673 81.1634 11.7067 81.1634 14.4934V24.9117Z" fill="#C778DD"/>
<path d="M69.5645 26.4317C69.2502 26.4317 68.9346 26.3152 68.6887 26.0808C68.1829 25.597 68.1652 24.7952 68.6494 24.2898L73.04 19.7032L68.6494 15.1153C68.1652 14.6099 68.1829 13.8081 68.6887 13.3255C69.1944 12.8416 69.9967 12.8594 70.4809 13.3648L75.7093 18.8279C76.1783 19.3168 76.1783 20.0882 75.7093 20.5784L70.4809 26.0403C70.2325 26.3012 69.8991 26.4317 69.5645 26.4317Z" fill="#E5E7E8"/>
<path d="M54.7372 26.4317C54.4038 26.4317 54.0705 26.3012 53.8208 26.0403L48.5924 20.5784C48.1247 20.0882 48.1247 19.3168 48.5924 18.8279L53.8208 13.3648C54.305 12.8594 55.1073 12.8416 55.613 13.3255C56.1188 13.8081 56.1378 14.6099 55.6536 15.1153L51.263 19.7032L55.6536 24.2898C56.1378 24.7952 56.1188 25.597 55.613 26.0808C55.3684 26.3152 55.0528 26.4317 54.7372 26.4317Z" fill="#E5E7E8"/>
<path d="M60.0911 26.433C59.9428 26.433 59.792 26.4064 59.645 26.3507C58.9897 26.1037 58.6589 25.3741 58.9048 24.7192L63.0241 13.7942C63.2713 13.1393 64.0026 12.8087 64.6579 13.0545C65.3132 13.3015 65.6441 14.0323 65.3969 14.6872L61.2775 25.6122C61.0861 26.1189 60.6032 26.433 60.0911 26.433" fill="#E5E7E8"/>
<path d="M173.422 126.032C178.502 126.407 203.516 134.524 204.15 141.491C204.784 148.457 151.549 179.174 128.219 178.857C104.891 178.541 60.2889 149.724 61.8733 142.862C63.4576 136.002 80.3268 126.838 90.7089 126.032C103.701 125.024 173.422 126.032 173.422 126.032Z" fill="#292F52"/>
<path d="M126.938 163.75C130.477 164.607 136.656 169.357 138.874 170.624C141.092 171.891 150.757 177.749 151.549 180.282C152.341 182.816 152.183 190.257 146.796 192.474C141.409 194.691 123.347 188.516 120.97 186.299C118.277 168.724 126.938 163.75 126.938 163.75Z" fill="#292F52"/>
<path d="M61.8314 142.124C60.0139 144.816 59.4967 155.582 61.8733 159.382C64.2498 163.182 89.9167 180.282 119.545 186.299C118.594 181.866 128.981 168.816 131.093 166.507C109.44 155.858 78.3508 137.849 61.8314 142.124" fill="#3E4463"/>
<path d="M129.156 168.829C115.584 167.299 98.2848 175.374 97.0312 180.441C95.7789 185.507 96.888 191.524 100.057 194.532C103.225 197.541 124.086 196.275 134.649 188.041C136.814 179.491 129.156 168.829 129.156 168.829Z" fill="#292F52"/>
<path d="M128.958 171.273C123.294 171.046 112.256 173.949 109.088 176.799C110.989 181.707 112.415 188.832 110.83 191.207C117.168 192.316 129.491 189.149 132.994 186.299C133.329 181.707 128.958 171.273 128.958 171.273" fill="#9A40B0"/>
<path d="M204.15 141.491C206.582 145.607 207.953 156.374 204.15 160.174C200.348 163.974 159.788 184.452 134.649 188.041C130.847 184.452 128.1 170.941 129.156 168.829C146.057 155.952 184.292 139.062 204.15 141.491" fill="#3E4463"/>
<path d="M171.2 109.293C171.874 117.823 167.556 118.793 164.546 120.852C161.535 122.91 162.486 129.085 163.595 139.535C156.782 144.918 119.866 152.993 99.428 142.068C99.9033 139.06 100.22 130.827 99.7449 127.185C99.2695 123.543 97.5267 121.485 91.3477 117.843C85.1686 114.202 91.6645 75.0932 94.358 71.7682C97.0514 68.4432 113.687 57.9932 122.401 56.7266C122.401 56.7266 135.71 55.9349 141.097 56.7266C146.484 57.5182 165.972 66.7016 171.2 72.7182C176.429 78.7349 170.725 103.277 171.2 109.293Z" fill="#9A40B0"/>
<path d="M152.605 142.862C153.45 142.652 171.195 139.696 179.012 133.996C189.968 126.007 175.622 78.0573 171.951 73.8481C171.951 73.8481 169.14 69.2349 161.136 65.4185C155.04 69.0766 156.492 85.9119 156.941 89.3433C158.308 99.7958 162.633 114.208 163.59 117.529C161.267 120.062 150.07 125.129 150.07 125.129L152.605 142.862" fill="#C778DD"/>
<path d="M112.045 143.919C112.045 143.919 104.445 144.271 97.2581 141.807C71.4099 132.946 84.0596 83.4849 94.358 71.7682C94.358 71.7682 97.8234 68.0392 102.377 65.7186C106.119 67.269 109.132 77.1262 106.928 88.3958C104.863 98.9522 101.905 119.429 101.905 121.541C104.229 123.229 110.989 126.607 110.989 126.607L112.045 143.919" fill="#C778DD"/>
<path d="M167.171 149.407H96.2111L93.1375 104.827C111.533 101.934 154.874 101.934 170.245 104.827L167.171 149.407Z" fill="white"/>
<path d="M136.444 126.032C136.444 128.656 134.316 130.782 131.691 130.782C129.066 130.782 126.938 128.656 126.938 126.032C126.938 123.408 129.066 121.282 131.691 121.282C134.316 121.282 136.444 123.408 136.444 126.032Z" fill="#C778DD"/>
<path d="M167.171 149.407V153.101H96.1616L96.2111 149.407H167.171Z" fill="#9A40B0"/>
<path d="M142.735 47.5432C142.461 50.3945 142.206 57.4663 144.002 59.9996C137.136 66.0163 123.934 64.8548 119.603 60.7381C120.553 57.3599 120.553 50.3932 119.603 48.1766C118.652 45.9599 130.799 44.2715 130.799 44.2715L142.735 47.5432Z" fill="#FFA993"/>
<path d="M109.739 30.1317C101.281 10.0689 113.899 9.43813 113.899 9.43813C116.645 0.219331 133.747 -1.20568 139.46 0.782988C148.861 4.05479 155.346 14.0703 151.057 29.4451C151.057 29.4451 145.77 52.4908 133.017 52.4516C120.223 52.4123 109.739 30.1317 109.739 30.1317Z" fill="#692E75"/>
<path d="M153.612 34.8247C153.612 39.7089 149.248 41.1048 146.536 41.1048C143.822 41.1048 144.608 36.7437 144.608 34.0039C144.608 31.2628 144.984 28.5432 147.698 28.5432C150.411 28.5432 153.612 29.8099 153.612 34.8247" fill="#FFA993"/>
<path d="M106.928 35.7253C106.928 40.6095 111.292 42.0054 114.004 42.0054C116.717 42.0054 115.932 37.6443 115.932 34.9045C115.932 32.1647 115.556 29.4451 112.842 29.4451C110.13 29.4451 106.928 30.7118 106.928 35.7253Z" fill="#FFA993"/>
<path d="M136.198 56.3745C131.221 58.6266 123.627 58.3454 120.242 56.3745C120.306 54.8241 120.343 52.8721 120.242 51.7486C124.249 53.0317 136.198 56.3745 136.198 56.3745Z" fill="#FF7D71"/>
<path d="M111.681 30.8651C111.681 46.0651 119.286 56.7266 133.017 56.7266C146.748 56.7266 149.916 38.7817 149.916 30.8651C149.916 22.9484 137.136 13.8715 130.271 13.8715C113.582 13.8715 111.681 30.8651 111.681 30.8651" fill="#FFB29E"/>
<path d="M111.681 34.8246C117.279 31.2881 118.752 25.4728 120.025 24.7432C127.393 20.5214 132.502 27.9454 142.84 24.3215C142.84 24.3215 144.953 30.8334 149.916 32.8284C150.148 28.6319 144.802 21.4651 141.655 18.6189C138.509 15.7714 120.23 12.6225 116.854 19.4752C113.476 26.3266 111.681 34.8246 111.681 34.8246" fill="#FF7D71"/>
<path d="M111.681 34.8246C115.8 32.133 117.807 26.115 118.124 23.7932C127.418 16.933 134.389 25.7996 143.579 23.1599C144.319 26.5381 147.698 31.5187 149.916 32.8284C150.326 30.1747 151.777 25.7908 150.616 22.8344C149.454 19.8793 148.051 9.43811 129.761 8.90991C111.469 8.38297 108.724 20.0997 109.146 23.6881C109.568 27.2766 111.681 34.8246 111.681 34.8246" fill="#692E75"/>
<path d="M139.196 35.7873C139.196 36.902 138.663 37.8064 138.007 37.8064C137.352 37.8064 136.819 36.902 136.819 35.7873C136.819 34.6727 137.352 33.7683 138.007 33.7683C138.663 33.7683 139.196 34.6727 139.196 35.7873Z" fill="#292F52"/>
<path d="M126.243 35.7873C126.243 36.902 125.711 37.8064 125.056 37.8064C124.399 37.8064 123.867 36.902 123.867 35.7873C123.867 34.6727 124.399 33.7683 125.056 33.7683C125.711 33.7683 126.243 34.6727 126.243 35.7873Z" fill="#292F52"/>
<path d="M136.391 28.4888C136.391 28.4888 136.398 28.4609 136.412 28.4102C136.429 28.3608 136.449 28.2747 136.49 28.1949C136.567 28.0226 136.696 27.7921 136.9 27.5856C137.001 27.4754 137.116 27.364 137.254 27.2778C137.385 27.179 137.534 27.0878 137.695 27.0131C137.86 26.9472 138.032 26.875 138.217 26.8421C138.401 26.8003 138.591 26.7788 138.785 26.775C138.978 26.7737 139.17 26.7864 139.359 26.8269C139.548 26.8535 139.729 26.9219 139.899 26.9916C140.07 27.0498 140.221 27.1651 140.361 27.2576C140.504 27.3399 140.62 27.4602 140.721 27.5742C140.93 27.7845 141.05 28.0252 141.119 28.2C141.187 28.376 141.21 28.4888 141.209 28.4888L141.219 28.5394C141.224 28.5686 141.205 28.5964 141.176 28.6015C141.166 28.604 141.154 28.6015 141.144 28.5977C141.144 28.5977 141.074 28.5648 140.953 28.509C140.832 28.4482 140.657 28.3722 140.442 28.2988C140.335 28.257 140.22 28.2152 140.092 28.1873C139.965 28.1556 139.835 28.1138 139.693 28.0986C139.413 28.0518 139.11 28.0252 138.807 28.0416C138.201 28.0353 137.596 28.1683 137.164 28.3178C136.727 28.4584 136.455 28.5977 136.455 28.5977C136.429 28.6116 136.397 28.6015 136.383 28.5749C136.376 28.5622 136.374 28.5496 136.378 28.5369L136.391 28.4888" fill="#FF7167"/>
<path d="M121.978 28.4863C121.978 28.4863 122 28.3735 122.069 28.2089C122.139 28.0467 122.253 27.8327 122.429 27.6376C122.515 27.5363 122.613 27.4299 122.73 27.3463C122.846 27.2601 122.968 27.1563 123.11 27.0917C123.388 26.9435 123.718 26.8523 124.067 26.8219C124.414 26.7978 124.784 26.851 125.115 26.9777C125.446 27.1183 125.735 27.3197 125.925 27.5527C126.023 27.6667 126.094 27.7909 126.149 27.8973C126.208 27.9999 126.229 28.1215 126.252 28.2063C126.29 28.3875 126.285 28.4951 126.285 28.4951L126.282 28.5496C126.281 28.5787 126.257 28.6003 126.228 28.599C126.219 28.599 126.209 28.5965 126.201 28.5914C126.201 28.5914 126.144 28.5547 126.045 28.4901C125.952 28.4153 125.796 28.3495 125.615 28.2646C125.427 28.1911 125.201 28.1265 124.95 28.0923C124.699 28.0632 124.428 28.0581 124.158 28.0847C123.614 28.1151 123.076 28.2456 122.684 28.3735C122.289 28.4964 122.034 28.6003 122.034 28.6003C122.008 28.6104 121.979 28.599 121.969 28.5737C121.965 28.5635 121.964 28.5547 121.967 28.5445L121.978 28.4863" fill="#FF7167"/>
<path d="M133.848 40.4043C133.848 40.4043 133.879 40.493 133.929 40.6501C133.975 40.8008 134.069 41.0174 134.166 41.2796C134.368 41.804 134.652 42.5095 134.805 43.2898C134.871 43.6812 134.921 44.0979 134.804 44.521C134.751 44.7313 134.626 44.9415 134.458 45.0809C134.289 45.2227 134.095 45.2899 133.932 45.3152C133.596 45.3697 133.351 45.2937 133.179 45.2658C133.012 45.2177 132.919 45.186 132.919 45.186C132.867 45.167 132.839 45.1087 132.858 45.0568C132.872 45.0163 132.908 44.9909 132.948 44.9897L132.956 44.9884C132.956 44.9884 133.051 44.9846 133.211 44.9846C133.367 44.9782 133.604 44.9669 133.824 44.8845C134.047 44.7984 134.201 44.6578 134.244 44.3817C134.292 44.1106 134.253 43.7559 134.184 43.4063C134.043 42.7008 133.83 41.9712 133.73 41.4012C133.675 41.1175 133.659 40.873 133.647 40.6982C133.637 40.5196 133.65 40.4284 133.65 40.4284L133.652 40.4195C133.661 40.3651 133.713 40.3271 133.768 40.3347C133.806 40.341 133.837 40.3689 133.848 40.4043" fill="#FF7167"/>
<path d="M127.507 48.2501C127.507 48.2501 127.668 48.3159 127.939 48.4451C128.076 48.5199 128.241 48.5743 128.418 48.6351C128.594 48.701 128.795 48.7694 129.032 48.8302C129.259 48.8999 129.512 48.9568 129.781 49.0113C130.044 49.0784 130.337 49.0987 130.629 49.1557C130.927 49.1874 131.233 49.2178 131.546 49.2406C131.862 49.2608 132.18 49.271 132.501 49.2672C132.822 49.2824 133.142 49.2507 133.458 49.2406C133.77 49.2051 134.085 49.2051 134.379 49.1519C134.677 49.1114 134.966 49.0759 135.235 49.0176C135.51 48.9733 135.752 48.896 135.992 48.8479C136.215 48.7732 136.431 48.7187 136.614 48.6529C136.788 48.5743 136.956 48.5237 137.082 48.4641C137.325 48.3362 137.477 48.2652 137.477 48.2652L137.507 48.2513C137.608 48.2044 137.728 48.2475 137.775 48.3476C137.809 48.421 137.794 48.5046 137.745 48.5629C137.745 48.5629 137.629 48.6985 137.404 48.9328C137.167 49.1469 136.8 49.423 136.316 49.6738C136.071 49.7789 135.809 49.9297 135.515 50.0145C135.223 50.1184 134.914 50.2223 134.586 50.2881C134.259 50.3717 133.918 50.416 133.568 50.4692C133.218 50.492 132.863 50.5351 132.506 50.5288C132.148 50.5402 131.791 50.506 131.44 50.4756C131.089 50.4477 130.747 50.373 130.417 50.3059C130.091 50.2197 129.774 50.1488 129.485 50.0246C129.341 49.9689 129.2 49.9157 129.065 49.8625C128.934 49.7954 128.809 49.7308 128.687 49.6675C128.446 49.5522 128.231 49.4103 128.047 49.2722C127.857 49.1443 127.708 49.0252 127.61 48.9163C127.395 48.706 127.277 48.5781 127.277 48.5781C127.201 48.4945 127.207 48.3653 127.29 48.2881C127.35 48.2336 127.436 48.2209 127.507 48.2501" fill="#FF7167"/>
</svg>
