<svg width="100" height="100" viewBox="0 0 100 100" fill="none" xmlns="http://www.w3.org/2000/svg">
<mask id="path-1-inside-1_64_1296" fill="white">
<path fill-rule="evenodd" clip-rule="evenodd" d="M25 30H38H51V43H38V56H51V69H38H25V56V43V30Z"/>
</mask>
<path d="M25 30V29H24V30H25ZM51 30H52V29H51V30ZM51 43V44H52V43H51ZM38 43V42H37V43H38ZM38 56H37V57H38V56ZM51 56H52V55H51V56ZM51 69V70H52V69H51ZM25 69H24V70H25V69ZM38 29H25V31H38V29ZM51 29H38V31H51V29ZM52 43V30H50V43H52ZM38 44H51V42H38V44ZM39 56V43H37V56H39ZM38 57H51V55H38V57ZM50 56V69H52V56H50ZM51 68H38V70H51V68ZM25 70H38V68H25V70ZM24 56V69H26V56H24ZM24 43V56H26V43H24ZM24 30V43H26V30H24Z" fill="#C778DD" mask="url(#path-1-inside-1_64_1296)"/>
<mask id="path-3-outside-2_64_1296" maskUnits="userSpaceOnUse" x="50" y="16" width="28" height="41" fill="black">
<rect fill="white" x="50" y="16" width="28" height="41"/>
<path fill-rule="evenodd" clip-rule="evenodd" d="M51 17H64H77V30V43V56H64H51V43H64V30H51V17Z"/>
</mask>
<path d="M51 17V16H50V17H51ZM77 17H78V16H77V17ZM77 56V57H78V56H77ZM51 56H50V57H51V56ZM51 43V42H50V43H51ZM64 43V44H65V43H64ZM64 30H65V29H64V30ZM51 30H50V31H51V30ZM64 16H51V18H64V16ZM77 16H64V18H77V16ZM78 30V17H76V30H78ZM78 43V30H76V43H78ZM78 56V43H76V56H78ZM64 57H77V55H64V57ZM64 55H51V57H64V55ZM52 56V43H50V56H52ZM51 44H64V42H51V44ZM63 30V43H65V30H63ZM51 31H64V29H51V31ZM50 17V30H52V17H50Z" fill="#C778DD" mask="url(#path-3-outside-2_64_1296)"/>
</svg>
